# xmcd
# Track frame offsets:
# 150
# 23396
# 44695
# 61866
# 83237
# 104046
# 117256
# 128452
# 143156
# 159696
# 178735
# 197708
# 211564
#
# Disc length: 3039 seconds
# Revision: 0
# Processed by: cddbd v1.5.2PL0 Copyright (c) Steve Scherf et al.
# Submitted via: VisiTrax 2.10.3.257 - For more info visit www.synapsa.com
#
DISCID=ad0bdd0d
DTITLE=King, Carole - Breaking up is hard to do. Disk2
DYEAR=1900
DGENRE=Easy Listening
TTITLE0=Too much Rain
TTITLE1=Sweet Seasons
TTITLE2=Music
TTITLE3=Growing away from me
TTITLE4=Its going to take some time
TTITLE5=Sweet Adonis
TTITLE6=Oh! Oh! it started all over again
TTITLE7=The Best is yet to come
TTITLE8=You got your way I'll go mine
TTITLE9=Change in mind. Change in Heart
TTITLE10=We are all in this together
TTITLE11=My lovin eyes
TTITLE12=You gentle me
EXTD=
EXTT0=
EXTT1=
EXTT2=
EXTT3=
EXTT4=
EXTT5=
EXTT6=
EXTT7=
EXTT8=
EXTT9=
EXTT10=
EXTT11=
EXTT12=
PLAYORDER=
